<?xml version="1.0" standalone="no"?>
<!DOCTYPE svg PUBLIC "-//W3C//DTD SVG 20010904//EN"
 "http://www.w3.org/TR/2001/REC-SVG-20010904/DTD/svg10.dtd">
<svg version="1.0" xmlns="http://www.w3.org/2000/svg"
 width="353.000000pt" height="353.000000pt" viewBox="0 0 353.000000 353.000000"
 preserveAspectRatio="xMidYMid meet">
<metadata>
Created by potrace 1.14, written by Peter Selinger 2001-2017
</metadata>
<g transform="translate(0.000000,353.000000) scale(0.100000,-0.100000)"
fill="#000000" stroke="none">
<path d="M1573 3519 c-686 -80 -1265 -548 -1482 -1197 -80 -240 -109 -528 -77
-772 54 -407 225 -753 515 -1040 536 -529 1350 -660 2023 -325 422 210 740
576 888 1023 205 619 55 1299 -391 1766 -160 168 -303 274 -499 372 -294 147
-653 211 -977 173z m485 -97 c2 -7 18 -12 36 -12 31 0 78 -12 121 -30 11 -5
40 -12 64 -16 67 -10 369 -146 386 -174 3 -6 24 -19 45 -30 21 -11 58 -39 82
-63 24 -24 59 -53 80 -65 76 -47 275 -281 332 -392 21 -41 49 -89 62 -107 13
-17 24 -39 24 -47 0 -9 5 -16 10 -16 6 0 10 -7 10 -15 0 -9 11 -37 24 -63 12
-26 36 -99 51 -162 15 -63 30 -119 34 -125 3 -5 7 -26 8 -45 1 -19 6 -64 11
-100 23 -159 5 -456 -34 -590 -9 -30 -19 -70 -21 -87 -3 -18 -9 -33 -14 -33
-5 0 -9 -13 -9 -29 0 -16 -7 -34 -15 -41 -8 -7 -15 -21 -15 -31 0 -10 -9 -33
-20 -51 -11 -18 -20 -41 -20 -50 0 -9 -10 -29 -23 -45 -12 -15 -29 -41 -37
-58 -8 -16 -23 -43 -35 -60 -11 -16 -20 -32 -20 -35 -1 -15 -82 -127 -118
-163 -23 -24 -54 -56 -68 -72 -14 -17 -52 -52 -84 -80 -31 -27 -76 -67 -100
-87 -23 -21 -45 -38 -49 -38 -4 0 -14 -6 -22 -12 -42 -36 -62 -49 -114 -75
-19 -9 -40 -22 -46 -28 -6 -6 -31 -19 -55 -29 -24 -10 -71 -31 -104 -46 -104
-47 -119 -53 -160 -61 -22 -4 -74 -16 -115 -27 -189 -51 -413 -53 -700 -7 -19
3 -42 8 -50 12 -8 3 -43 11 -76 18 -34 8 -79 22 -100 33 -22 11 -54 23 -71 27
-18 3 -35 11 -38 16 -4 5 -15 9 -25 9 -10 0 -20 3 -22 8 -1 4 -29 20 -60 37
-32 16 -58 33 -58 37 0 4 -9 8 -20 8 -11 0 -20 3 -20 8 0 4 -24 20 -53 36 -28
16 -56 35 -60 43 -4 7 -22 20 -40 30 -56 28 -319 307 -343 363 -7 15 -25 42
-42 61 -29 34 -99 165 -126 236 -34 92 -57 149 -66 165 -6 10 -10 30 -10 46 0
15 -4 32 -9 38 -4 5 -17 61 -27 124 -25 149 -25 433 -1 562 22 116 55 244 74
288 9 19 17 37 18 40 8 33 29 87 36 95 5 5 9 17 9 27 0 10 3 18 8 18 4 0 20
26 35 58 44 88 72 132 96 148 11 8 21 20 21 25 0 27 182 245 215 258 5 2 28
20 51 40 86 77 106 92 144 112 22 12 40 25 40 29 0 4 15 15 33 24 17 9 39 20
47 25 8 5 26 14 40 20 37 17 70 37 83 50 6 6 25 11 43 11 17 0 42 9 55 19 25
19 269 87 364 102 83 12 518 5 523 -9z"/>
<path d="M1535 3280 c-11 -5 -31 -9 -44 -9 -30 -1 -101 -48 -101 -67 0 -7 -9
-18 -20 -24 -11 -6 -20 -18 -20 -26 0 -8 -4 -12 -10 -9 -9 6 -14 -8 -11 -27 0
-5 -8 -8 -19 -8 -11 0 -20 -5 -20 -11 0 -6 -16 -1 -36 10 -39 23 -55 21 -34
-4 7 -9 10 -18 7 -22 -4 -3 -14 4 -24 16 -13 15 -22 18 -33 11 -13 -9 -13 -11
0 -20 8 -5 10 -10 4 -10 -5 0 -25 11 -44 25 -31 23 -60 32 -60 20 0 -13 58
-68 106 -101 77 -53 70 -94 -15 -94 -26 0 -86 -6 -136 -14 -49 -8 -141 -20
-203 -26 l-113 -13 -76 -81 c-72 -77 -223 -291 -223 -315 0 -8 19 -10 63 -7
97 7 104 4 104 -57 0 -75 17 -124 56 -166 19 -20 47 -56 62 -80 24 -40 26 -48
16 -80 -6 -20 -18 -45 -26 -55 -14 -19 -15 -19 -50 0 l-35 19 -31 -34 c-26
-28 -30 -40 -26 -68 4 -23 2 -33 -7 -33 -7 0 -23 -11 -35 -24 -21 -22 -22 -30
-16 -78 8 -59 7 -64 -14 -60 -47 11 -82 -30 -55 -65 20 -27 17 -31 -21 -39
-27 -5 -34 -10 -32 -27 1 -13 -7 -25 -23 -34 -14 -7 -20 -13 -15 -13 6 0 6 -3
-1 -8 -6 -4 -23 -28 -38 -54 -22 -38 -26 -54 -21 -80 13 -57 56 -201 71 -238
36 -83 127 -258 148 -285 l23 -29 69 13 c38 7 74 17 81 23 9 7 20 6 37 -6 28
-18 37 -71 22 -119 -6 -19 -4 -36 4 -52 7 -13 10 -39 8 -57 -8 -49 0 -60 82
-128 96 -78 233 -160 349 -211 114 -49 121 -49 121 -4 0 31 3 35 23 33 12 -1
56 1 97 6 74 8 140 37 238 103 35 23 63 24 157 5 28 -6 79 -15 114 -22 35 -6
79 -17 99 -25 19 -8 50 -15 69 -15 20 0 56 -6 82 -14 143 -44 219 -66 230 -66
33 0 241 121 341 199 25 19 87 77 139 129 l95 95 -45 13 c-24 6 -61 15 -82 18
-32 6 -36 9 -28 25 9 16 13 155 8 286 -1 41 6 65 41 135 60 121 250 344 377
442 22 17 51 44 64 61 24 29 24 29 13 145 -19 190 -97 472 -131 472 -5 0 -40
-27 -78 -60 -37 -33 -73 -60 -79 -60 -13 0 -84 24 -127 43 -15 7 -30 20 -33
29 -7 22 33 185 52 215 8 12 14 29 14 37 0 7 7 17 16 20 14 5 15 15 10 52 -3
25 -1 54 4 64 15 29 -54 110 -122 143 -40 20 -60 37 -74 64 -10 21 -30 47 -44
58 -14 11 -32 27 -40 35 -9 9 -41 30 -73 48 l-57 32 -40 -25 c-22 -14 -48 -25
-59 -25 -10 0 -24 -7 -31 -15 -7 -8 -19 -15 -27 -15 -8 0 -28 -7 -44 -15 -122
-63 -127 -63 -215 -20 -41 20 -81 46 -89 58 -14 19 -16 20 -33 4 -28 -25 -46
-21 -21 6 25 27 42 66 35 84 -6 15 -49 17 -74 4 -15 -8 -17 -3 -17 32 0 37 -3
42 -24 45 -13 2 -37 -6 -53 -18 l-29 -21 7 26 c7 29 -18 65 -46 65 -9 0 -37
-13 -63 -30 -26 -16 -50 -30 -53 -30 -3 0 -22 -11 -42 -25 -67 -46 -112 -29
-57 21 26 23 35 40 35 63 0 27 -3 31 -27 30 -16 0 -37 -4 -48 -9z m-618 -452
c-3 -7 -5 -2 -5 12 0 14 2 19 5 13 2 -7 2 -19 0 -25z m900 -15 c-9 -9 -20 -14
-24 -10 -3 4 2 14 13 21 25 19 33 10 11 -11z m-30 -21 c8 -5 6 -13 -6 -28 -16
-21 -18 -21 -29 -4 -16 26 8 49 35 32z m-884 -82 c-3 -11 -9 -20 -13 -20 -12
0 -20 28 -14 45 9 23 33 -1 27 -25z m1073 -44 c23 -4 70 -25 105 -46 116 -70
154 -88 282 -130 69 -22 134 -48 145 -58 39 -34 53 -110 57 -300 3 -215 4
-219 59 -399 12 -40 11 -45 -36 -160 -27 -65 -54 -134 -60 -153 -17 -62 -60
-140 -87 -161 -14 -11 -52 -37 -84 -58 -61 -40 -167 -137 -167 -152 0 -5 -4
-8 -9 -7 -10 3 -83 -58 -167 -139 l-54 -53 -74 0 c-108 0 -220 17 -305 47 -80
28 -77 28 -226 42 -115 12 -206 28 -216 39 -11 12 -33 251 -34 372 -2 156 -14
269 -33 305 -8 17 -19 44 -23 60 -4 17 -23 69 -43 117 l-37 87 46 118 c25 65
52 132 60 148 30 59 55 161 55 222 0 66 14 141 34 183 9 20 23 27 61 33 28 5
86 17 130 27 44 10 98 21 120 25 22 4 67 16 100 27 50 17 65 18 93 8 39 -14
84 -6 106 19 16 18 20 17 89 -19 40 -21 91 -41 113 -44z m-1036 -86 c0 -5 -4
-10 -10 -10 -5 0 -10 5 -10 10 0 6 5 10 10 10 6 0 10 -4 10 -10z m30 0 c0 -5
-2 -10 -4 -10 -3 0 -8 5 -11 10 -3 6 -1 10 4 10 6 0 11 -4 11 -10z m1858 -102
c-2 -6 -10 -13 -16 -14 -7 -1 -8 0 -2 3 5 2 8 9 4 14 -3 5 0 9 6 9 7 0 10 -5
8 -12z"/>
<path d="M1553 2449 c4 -30 12 -102 18 -161 7 -59 10 -110 8 -113 -3 -2 -86 6
-184 20 -98 14 -181 22 -184 19 -3 -3 -7 -68 -9 -145 l-4 -139 72 0 c39 0 126
5 192 11 65 6 121 9 122 7 1 -1 -3 -50 -10 -108 -6 -58 -14 -136 -18 -175 -10
-101 -25 -251 -42 -397 -8 -70 -14 -139 -14 -153 l0 -25 204 0 c113 0 207 3
209 8 4 7 1 38 -23 267 -5 55 -17 174 -26 265 -8 91 -19 197 -23 235 -5 39 -7
72 -5 74 2 2 82 -5 179 -15 96 -11 179 -18 185 -16 12 4 14 278 3 285 -5 3
-64 -1 -133 -8 -236 -25 -241 -25 -236 -7 11 38 38 304 31 310 -4 4 -77 9
-162 11 l-156 3 6 -53z"/>
<path d="M1315 3180 c-3 -5 -1 -10 4 -10 6 0 11 5 11 10 0 6 -2 10 -4 10 -3 0
-8 -4 -11 -10z"/>
<path d="M1570 3170 c0 -5 5 -10 11 -10 5 0 7 5 4 10 -3 6 -8 10 -11 10 -2 0
-4 -4 -4 -10z"/>
</g>
</svg>
